<?xml version="1.0" encoding="iso-8859-1"?>
<!-- Generator: Adobe Illustrator 19.0.0, SVG Export Plug-In . SVG Version: 6.00 Build 0)  -->
<svg version="1.1" id="Capa_1" xmlns="http://www.w3.org/2000/svg" xmlns:xlink="http://www.w3.org/1999/xlink" x="0px" y="0px"
	 viewBox="0 0 512.073 512.073" style="enable-background:new 0 0 512.073 512.073;" xml:space="preserve">
<path style="fill:#455A64;" d="M494.375,418.624L267.132,191.381c6.951-16.705,10.525-34.621,10.517-52.715
	C277.65,62.083,215.567,0,138.983,0S0.316,62.083,0.316,138.667S62.4,277.333,138.983,277.333
	c18.093,0.008,36.009-3.567,52.715-10.517l78.037,78.016l-31.616,31.616c-4.164,4.165-4.164,10.917,0,15.083l42.667,42.667
	c4.165,4.164,10.917,4.164,15.083,0l35.115-35.115L347.9,416l-35.115,35.115c-4.164,4.165-4.164,10.917,0,15.083l42.667,42.667
	c4.165,4.164,10.917,4.164,15.083,0l31.616-31.616l19.2,19.2c20.826,20.83,54.595,20.834,75.425,0.008
	c1.82-1.82,3.506-3.769,5.045-5.832C517.498,468.089,514.333,437.474,494.375,418.624z M138.983,213.333
	c-41.237,0-74.667-33.429-74.667-74.667S97.746,64,138.983,64c41.237,0,74.667,33.429,74.667,74.667S180.22,213.333,138.983,213.333
	L138.983,213.333z"/>
<g>
</g>
<g>
</g>
<g>
</g>
<g>
</g>
<g>
</g>
<g>
</g>
<g>
</g>
<g>
</g>
<g>
</g>
<g>
</g>
<g>
</g>
<g>
</g>
<g>
</g>
<g>
</g>
<g>
</g>
</svg>
