<?xml version="1.0" encoding="iso-8859-1"?>
<!-- Generator: Adobe Illustrator 19.0.0, SVG Export Plug-In . SVG Version: 6.00 Build 0)  -->
<svg version="1.1" id="Capa_1" xmlns="http://www.w3.org/2000/svg" xmlns:xlink="http://www.w3.org/1999/xlink" x="0px" y="0px"
	 viewBox="0 0 512.002 512.002" style="enable-background:new 0 0 512.002 512.002;" xml:space="preserve">
<path style="fill:#4398D1;" d="M313.823,462.567l-22.51-30.014V291.312c-0.018-63.382-44.95-117.857-107.167-129.942l36.546-73.092
	l-8.828-5.888c-10.911-7.274-24.885-8.148-36.617-2.286c-10.284,5.138-22.378,5.138-32.662,0
	c-11.741-5.87-25.732-5.005-36.652,2.286l-8.828,5.888l36.546,73.092C71.435,173.454,26.503,227.93,26.485,291.312v141.241
	l-22.51,30.014c-6.585,8.775-4.802,21.222,3.972,27.807c3.443,2.578,7.618,3.972,11.917,3.972h278.069
	c10.973,0,19.862-8.889,19.862-19.862C317.796,470.185,316.401,466.01,313.823,462.567z"/>
<path style="fill:#3E8FC9;" d="M313.823,462.567l-22.51-30.014V291.312c0.035-26.915-8.174-53.195-23.534-75.299
	c-54.81,118.493-168.51,178.494-241.293,205.312v11.229l-22.51,30.014c-6.585,8.775-4.802,21.222,3.972,27.807
	c3.443,2.578,7.618,3.972,11.917,3.972h278.069c10.973,0,19.862-8.889,19.862-19.862
	C317.796,470.185,316.401,466.01,313.823,462.567z"/>
<rect x="370.761" y="388.415" style="fill:#FFA719;" width="141.241" height="52.966"/>
<rect x="370.761" y="441.381" style="fill:#FDB62F;" width="141.241" height="52.966"/>
<rect x="370.761" y="282.484" style="fill:#FFA719;" width="141.241" height="52.966"/>
<g>
	<rect x="335.451" y="229.518" style="fill:#FDB62F;" width="141.241" height="52.966"/>
	<rect x="335.451" y="335.449" style="fill:#FDB62F;" width="141.241" height="52.966"/>
	<circle style="fill:#FDB62F;" cx="406.071" cy="158.898" r="70.621"/>
</g>
<g>
	<rect x="397.244" y="414.898" style="fill:#FA962A;" width="17.655" height="26.483"/>
	<rect x="432.554" y="414.898" style="fill:#FA962A;" width="17.655" height="26.483"/>
	<rect x="467.865" y="414.898" style="fill:#FA962A;" width="17.655" height="26.483"/>
	<rect x="397.244" y="467.863" style="fill:#FA962A;" width="17.655" height="26.483"/>
	<rect x="432.554" y="467.863" style="fill:#FA962A;" width="17.655" height="26.483"/>
	<rect x="467.865" y="467.863" style="fill:#FA962A;" width="17.655" height="26.483"/>
	<rect x="397.244" y="308.967" style="fill:#FA962A;" width="17.655" height="26.483"/>
	<rect x="432.554" y="308.967" style="fill:#FA962A;" width="17.655" height="26.483"/>
	<rect x="467.865" y="308.967" style="fill:#FA962A;" width="17.655" height="26.483"/>
	<rect x="361.933" y="256.001" style="fill:#FA962A;" width="17.655" height="26.483"/>
	<rect x="397.244" y="256.001" style="fill:#FA962A;" width="17.655" height="26.483"/>
	<rect x="432.554" y="256.001" style="fill:#FA962A;" width="17.655" height="26.483"/>
	<rect x="361.933" y="361.932" style="fill:#FA962A;" width="17.655" height="26.483"/>
	<rect x="397.244" y="361.932" style="fill:#FA962A;" width="17.655" height="26.483"/>
	<rect x="432.554" y="361.932" style="fill:#FA962A;" width="17.655" height="26.483"/>
	<path style="fill:#FA962A;" d="M379.589,158.898h-17.655c0.026-24.364,19.774-44.111,44.138-44.138v17.655
		C391.444,132.415,379.589,144.27,379.589,158.898z"/>
	<path style="fill:#FA962A;" d="M406.071,203.036v-17.655c14.627,0,26.483-11.855,26.483-26.483h17.655
		C450.183,183.262,430.436,203.009,406.071,203.036z"/>
</g>
<g>
	<path style="fill:#FDB62F;" d="M169.421,388.415h-21.045c-18.556-0.018-33.598-15.06-33.615-33.615v-1.695h17.655v1.695
		c0.009,8.81,7.15,15.951,15.96,15.96h21.045c8.819,0,15.96-7.15,15.96-15.969c0-7.318-4.988-13.7-12.085-15.475l-33.077-8.28
		c-17.999-4.546-28.902-22.828-24.355-40.828c3.761-14.901,17.152-25.344,32.512-25.379h21.045
		c18.556,0.018,33.598,15.06,33.615,33.615v1.695h-17.655v-1.695c-0.009-8.81-7.15-15.951-15.96-15.96h-21.045
		c-8.819,0-15.96,7.15-15.951,15.969c0,7.318,4.988,13.7,12.085,15.475l33.068,8.263c17.999,4.546,28.902,22.828,24.355,40.828
		c-3.761,14.901-17.152,25.344-32.512,25.379L169.421,388.415z"/>
	<rect x="150.071" y="247.174" style="fill:#FDB62F;" width="17.655" height="26.483"/>
	<rect x="150.071" y="379.587" style="fill:#FDB62F;" width="17.655" height="26.483"/>
	<path style="fill:#FDB62F;" d="M282.485,88.277L282.485,88.277c-3.019-18.105-17.205-32.291-35.31-35.31l0,0
		c18.105-3.019,32.291-17.205,35.31-35.31l0,0c3.019,18.105,17.205,32.291,35.31,35.31l0,0
		C299.69,55.986,285.504,70.172,282.485,88.277z"/>
</g>
<g>
</g>
<g>
</g>
<g>
</g>
<g>
</g>
<g>
</g>
<g>
</g>
<g>
</g>
<g>
</g>
<g>
</g>
<g>
</g>
<g>
</g>
<g>
</g>
<g>
</g>
<g>
</g>
<g>
</g>
</svg>
