<svg id="color" enable-background="new 0 0 24 24" height="512" viewBox="0 0 24 24" width="512" xmlns="http://www.w3.org/2000/svg"><path d="m21 1h-18c-1.654 0-3 1.346-3 3v16c0 1.654 1.346 3 3 3h18c1.654 0 3-1.346 3-3v-16c0-1.654-1.346-3-3-3z" fill="#607d8b"/><path d="m21 21h-18c-.551 0-1-.448-1-1v-14h20v14c0 .552-.449 1-1 1z" fill="#fff"/><path d="m12 20c-3.309 0-6-2.691-6-6s2.691-6 6-6 6 2.691 6 6-2.691 6-6 6z" fill="#4caf50"/><path d="m11.387 16.75c-.242 0-.483-.087-.676-.263l-1.637-1.5c-.407-.373-.435-1.006-.062-1.413.373-.406 1.005-.434 1.413-.062l.914.838 2.186-2.291c.382-.399 1.016-.414 1.414-.033.399.381.414 1.015.033 1.414l-2.863 3c-.195.206-.459.31-.722.31z" fill="#fff"/><path d="m12 1h-9c-1.654 0-3 1.346-3 3v16c0 1.654 1.346 3 3 3h9v-2h-9c-.551 0-1-.448-1-1v-14h10z" fill="#546d79"/><path d="m12 6h-10v14c0 .552.449 1 1 1h9v-1c-3.309 0-6-2.691-6-6s2.691-6 6-6z" fill="#dedede"/><path d="m12 8c-3.309 0-6 2.691-6 6s2.691 6 6 6v-3.46c-.179.139-.396.21-.613.21-.242 0-.483-.087-.676-.263l-1.637-1.5c-.407-.373-.435-1.006-.062-1.413.198-.215.467-.324.738-.324.241 0 .483.087.676.262l.914.838.66-.691z" fill="#429846"/><path d="m9.75 13.25c-.271 0-.54.109-.737.324-.373.407-.346 1.04.062 1.413l1.637 1.5c.192.176.434.263.676.263.217 0 .434-.07.613-.21v-2.881l-.66.692-.914-.838c-.194-.176-.436-.263-.677-.263z" fill="#dedede"/></svg>