<?xml version="1.0"?>
<svg xmlns="http://www.w3.org/2000/svg" id="Layer_1" data-name="Layer 1" viewBox="0 0 512 512" width="512" height="512"><title>User lock</title><path d="M204.067,241.36A89.463,89.463,0,1,0,114.605,151.9,89.564,89.564,0,0,0,204.067,241.36Zm0-166.925A77.463,77.463,0,1,1,126.605,151.9,77.55,77.55,0,0,1,204.067,74.435Z"/><path d="M284.785,263h0a6.03,6.03,0,0,0-4.835,2.479,94.126,94.126,0,0,1-151.759-.008A6.021,6.021,0,0,0,123.353,263h0C78.642,263,42,299.471,42,344.18V491.63A6.562,6.562,0,0,0,48.27,498h311.6A6.443,6.443,0,0,0,366,491.63V344.18A81.371,81.371,0,0,0,284.785,263ZM354,486H54V344.18a69.324,69.324,0,0,1,66.284-69.054,106.461,106.461,0,0,0,167.482,0A69.281,69.281,0,0,1,354,344.18Z"/><path d="M424.628,14h-58C341.758,14,322,34.6,322,59.472v56.046A25.12,25.12,0,0,0,347.076,141H365V258.506a6.167,6.167,0,0,0,1.36,3.6l20.4,27.082a6.074,6.074,0,0,0,4.632,2.4c.069,0,.158,0,.228,0a6.019,6.019,0,0,0,4.548-2.076l28.3-32.733a6,6,0,0,0,.119-7.708L409.494,230.5,424.6,211.78a5.985,5.985,0,0,0-.732-8.392L408,190.174v-10.7l14.979-12.044a6.019,6.019,0,0,0,2.2-4.867L424.608,141h19.571A25.754,25.754,0,0,0,470,115.518V59.472A45.7,45.7,0,0,0,424.628,14ZM413.055,159.869l-14.91,12.006A5.926,5.926,0,0,0,396,176.581V193a5.9,5.9,0,0,0,2.064,4.624L411.6,208.857l-14.464,17.882a6,6,0,0,0,0,7.553l14.982,18.443-20.3,23.295L377,256.505V141h35.605ZM458,115.518A13.742,13.742,0,0,1,444.179,129h-97.1C339.6,129,334,122.989,334,115.518V59.472C334,41.22,348.375,26,366.627,26h58A33.69,33.69,0,0,1,458,59.472Z"/><path d="M418.763,48H372.492C362,48,353,56.8,353,67.292V80c0,3.313,3.145,6,6.458,6H431.8a6.178,6.178,0,0,0,6.2-6V67.292A19.453,19.453,0,0,0,418.763,48ZM426,74H365V67.292A7.671,7.671,0,0,1,372.492,60h46.271A7.443,7.443,0,0,1,426,67.292Z"/></svg>
